# xmcd
#
# Track frame offsets:
# 150
# 12163
# 24819
# 37468
# 57326
# 78143
# 95078
# 113648
# 130128
# 147821
# 164998
# 181777
# 200987
# 224012
# 252940
# 269578
#
# Disc length: 3777 seconds
#
#
# Revision: 0
# Processed by: cddbd v1.5.2PL0 Copyright (c) Steve Scherf et al.
# Submitted via: FreeRIP 2.945 
#
DISCID=f00ebf10
DTITLE=Moonshine Bandits - Whiskey and Women  Deluxe Shiner Edition
DYEAR=2012
DGENRE=Rap
TTITLE0=Shotgun Shells and Shine
TTITLE1=Shine With Me
TTITLE2=Whiskey River
TTITLE3=For The Outlawz (ft. Colt Ford and Big B)
TTITLE4=Moonshine On Me (ft. Danny Boone of Rehab)
TTITLE5=Addicted (ft. Paradime)
TTITLE6=Whiskey In My Soul (ft. Pruno)
TTITLE7=Dive Bar Beauty Queen (ft. Danny Boone and Pruno)
TTITLE8=Fire It Up (ft. Daddy X and The Dirtball of Kottonmouth Kings)
TTITLE9=Get Loose (ft. Derrty D)
TTITLE10=American Pride
TTITLE11=My Kind of Country
TTITLE12=Super Googles Average Joes Remix (ft. Durwood Black)
TTITLE13=Dash Fulla Cowboy Hats (ft. Mikel Knight and Duke Boyz)
TTITLE14=Los Banos (ft. Sunny Ledfurd, Ziggy Pockets, Derrty D)
TTITLE15=Hell Raisin' Country Remix (ft. Big SMO)
EXTD=
EXTT0=
EXTT1=
EXTT2=
EXTT3=
EXTT4=
EXTT5=
EXTT6=
EXTT7=
EXTT8=
EXTT9=
EXTT10=
EXTT11=
EXTT12=
EXTT13=
EXTT14=
EXTT15=
PLAYORDER=
